<svg width="512" height="512" viewBox="0 0 512 512" fill="none" xmlns="http://www.w3.org/2000/svg">
  <defs>
    <linearGradient id="bg" x1="64" y1="64" x2="448" y2="448" gradientUnits="userSpaceOnUse">
      <stop stop-color="#FF4E45"></stop>
      <stop offset="1" stop-color="#D62839"></stop>
    </linearGradient>
    <linearGradient id="book" x1="132" y1="150" x2="380" y2="362" gradientUnits="userSpaceOnUse">
      <stop stop-color="#FFF8E7"></stop>
      <stop offset="1" stop-color="#F2E8C9"></stop>
    </linearGradient>
    <filter id="shadow" x="94" y="112" width="324" height="288" filterUnits="userSpaceOnUse" color-interpolation-filters="sRGB">
      <feDropShadow dx="0" dy="10" stdDeviation="12" flood-color="#000000" flood-opacity="0.18"></feDropShadow>
    </filter>
  </defs>

  <!-- Background -->
  <rect x="32" y="32" width="448" height="448" rx="112" fill="url(#bg)"></rect>

  <!-- Book -->
  <g filter="url(#shadow)">
    <path d="M148 156C148 143.85 157.85 134 170 134H246C274.509 134 298.748 145.299 314 164.544C329.252 145.299 353.491 134 382 134V350C353.491 350 329.252 361.299 314 380.544C298.748 361.299 274.509 350 246 350H170C157.85 350 148 340.15 148 328V156Z" fill="url(#book)"></path>
    <path d="M314 164.544C329.252 145.299 353.491 134 382 134V350C353.491 350 329.252 361.299 314 380.544V164.544Z" fill="#EADFB8"></path>
    <path d="M256 152V364" stroke="#D4C79C" stroke-width="10" stroke-linecap="round"></path>
    <path d="M176 190H228" stroke="#D4C79C" stroke-width="10" stroke-linecap="round"></path>
    <path d="M176 222H228" stroke="#D4C79C" stroke-width="10" stroke-linecap="round"></path>
    <path d="M176 254H212" stroke="#D4C79C" stroke-width="10" stroke-linecap="round"></path>
  </g>

  <!-- Play button -->
  <circle cx="314" cy="242" r="60" fill="#FFFFFF"></circle>
  <path d="M294 214.5C294 210.775 298.042 208.469 301.241 210.35L344.153 235.85C347.29 237.695 347.29 242.305 344.153 244.15L301.241 269.65C298.042 271.531 294 269.225 294 265.5V214.5Z" fill="#D62839"></path>

  <!-- Download arrow -->
  <g>
    <rect x="220" y="354" width="72" height="16" rx="8" fill="#FFFFFF" fill-opacity="0.95"></rect>
    <path d="M256 292V360" stroke="#FFFFFF" stroke-width="18" stroke-linecap="round"></path>
    <path d="M224 332L256 364L288 332" stroke="#FFFFFF" stroke-width="18" stroke-linecap="round" stroke-linejoin="round"></path>
  </g>
</svg>
